# xmcd
#
# Track frame offsets:
#	150
#	22643
#	39513
#	60160
#	82587
#	101251
#	121100
#	136500
#	160314
#	177467
#	190128
#	207428
#	221151
#	239708
#	263110
#
# Disc length: 3734 seconds
#
# Revision: 0
# Processed by: cddbd v1.5.2PL0 Copyright (c) Steve Scherf et al.
# Submitted via: EZCDAudioConverter 2.0.7.1
#
DISCID=bb0e940f
DTITLE=Johnny Mathis - Life Is A Song Worth Singing - The Complete Thom Bell S
DTITLE=essions [CD2]
DYEAR=2015
DGENRE=Soul
TTITLE0=Johnny Mathis - As Long As We're Together
TTITLE1=Johnny Mathis - Lullaby Of Love
TTITLE2=Johnny Mathis - Loving You - Losing You
TTITLE3=Johnny Mathis - I'll Make You Happy
TTITLE4=Johnny Mathis - Heaven Must Have Made You Just For Me
TTITLE5=Johnny Mathis - Hung Up In The Middle Of Love
TTITLE6=Johnny Mathis - World Of Laughter
TTITLE7=Johnny Mathis - I Don't Want To Say No
TTITLE8=Johnny Mathis - Sweet Love Of Mine
TTITLE9=Johnny Mathis - Betcha By Golly Wow
TTITLE10=Johnny Mathis - Break Up To Make Up
TTITLE11=Johnny Mathis - You're As Right As Rain
TTITLE12=Johnny Mathis With Patti Austin - You Brought Me Love
TTITLE13=Johnny Mathis With Yolanda Adams - You Make Me Feel Brand New
TTITLE14=Johnny Mathis - Loving You - Losing You (Mono Single Version)
EXTD=
EXTT0=
EXTT1=
EXTT2=
EXTT3=
EXTT4=
EXTT5=
EXTT6=
EXTT7=
EXTT8=
EXTT9=
EXTT10=
EXTT11=
EXTT12=
EXTT13=
EXTT14=
PLAYORDER=
